<svg width="33" height="31" viewBox="0 0 33 31" fill="none" xmlns="http://www.w3.org/2000/svg"><path d="M11.748 13.683a.526.526 0 0 0-.722-.183L4.89 17.154a.526.526 0 0 0 0 .905l6.135 3.653a.523.523 0 0 0 .721-.182.526.526 0 0 0-.182-.722L6.19 17.606l5.375-3.201a.526.526 0 0 0 .183-.722z" fill="#2F2F2F"/><path d="M11.748 13.683a.526.526 0 0 0-.722-.183L4.89 17.154a.526.526 0 0 0 0 .905l6.135 3.653a.523.523 0 0 0 .721-.182.526.526 0 0 0-.182-.722L6.19 17.606l5.375-3.201a.526.526 0 0 0 .183-.722z" fill="url(#a)"/><path d="M11.748 13.683a.526.526 0 0 0-.722-.183L4.89 17.154a.526.526 0 0 0 0 .905l6.135 3.653a.523.523 0 0 0 .721-.182.526.526 0 0 0-.182-.722L6.19 17.606l5.375-3.201a.526.526 0 0 0 .183-.722z" fill="#1967FE"/><path d="M21.253 21.53a.526.526 0 0 0 .721.182l6.135-3.653a.526.526 0 0 0 0-.905L21.974 13.5a.526.526 0 1 0-.539.905l5.375 3.201-5.375 3.202a.526.526 0 0 0-.182.722z" fill="#2F2F2F"/><path d="M21.253 21.53a.526.526 0 0 0 .721.182l6.135-3.653a.526.526 0 0 0 0-.905L21.974 13.5a.526.526 0 1 0-.539.905l5.375 3.201-5.375 3.202a.526.526 0 0 0-.182.722z" fill="url(#b)"/><path d="M21.253 21.53a.526.526 0 0 0 .721.182l6.135-3.653a.526.526 0 0 0 0-.905L21.974 13.5a.526.526 0 1 0-.539.905l5.375 3.201-5.375 3.202a.526.526 0 0 0-.182.722z" fill="#1967FE"/><path d="M18.517 13.659l-4.908 7.308a.527.527 0 0 0 .874.587l4.908-7.308a.527.527 0 1 0-.874-.587z" fill="#2F2F2F"/><path d="M18.517 13.659l-4.908 7.308a.527.527 0 0 0 .874.587l4.908-7.308a.527.527 0 1 0-.874-.587z" fill="url(#c)"/><path d="M18.517 13.659l-4.908 7.308a.527.527 0 0 0 .874.587l4.908-7.308a.527.527 0 1 0-.874-.587z" fill="#1967FE"/><path d="M32.473.58H.527A.527.527 0 0 0 0 1.106v28.788c0 .29.236.526.527.526h31.946c.291 0 .527-.236.527-.526v-5.617a.527.527 0 1 0-1.053 0v5.09H1.053V5.846h30.894V22.17a.527.527 0 1 0 1.053 0V1.106a.527.527 0 0 0-.527-.526zM1.053 1.633h19.484v3.16H1.053v-3.16zm20.537 3.16v-3.16h10.357v3.16H21.59z" fill="#2F2F2F"/><path d="M32.473.58H.527A.527.527 0 0 0 0 1.106v28.788c0 .29.236.526.527.526h31.946c.291 0 .527-.236.527-.526v-5.617a.527.527 0 1 0-1.053 0v5.09H1.053V5.846h30.894V22.17a.527.527 0 1 0 1.053 0V1.106a.527.527 0 0 0-.527-.526zM1.053 1.633h19.484v3.16H1.053v-3.16zm20.537 3.16v-3.16h10.357v3.16H21.59z" fill="url(#d)"/><path d="M32.473.58H.527A.527.527 0 0 0 0 1.106v28.788c0 .29.236.526.527.526h31.946c.291 0 .527-.236.527-.526v-5.617a.527.527 0 1 0-1.053 0v5.09H1.053V5.846h30.894V22.17a.527.527 0 1 0 1.053 0V1.106a.527.527 0 0 0-.527-.526zM1.053 1.633h19.484v3.16H1.053v-3.16zm20.537 3.16v-3.16h10.357v3.16H21.59z" fill="#1967FE"/><path d="M26.786 2.651a.562.562 0 1 0 .002 1.125.562.562 0 0 0-.002-1.125z" fill="#2F2F2F"/><path d="M26.786 2.651a.562.562 0 1 0 .002 1.125.562.562 0 0 0-.002-1.125z" fill="url(#e)"/><path d="M26.786 2.651a.562.562 0 1 0 .002 1.125.562.562 0 0 0-.002-1.125z" fill="#1967FE"/><path d="M23.907 2.651a.562.562 0 1 0 .002 1.125.562.562 0 0 0-.002-1.125z" fill="#2F2F2F"/><path d="M23.907 2.651a.562.562 0 1 0 .002 1.125.562.562 0 0 0-.002-1.125z" fill="url(#f)"/><path d="M23.907 2.651a.562.562 0 1 0 .002 1.125.562.562 0 0 0-.002-1.125z" fill="#1967FE"/><path d="M29.665 2.651a.562.562 0 1 0 .001 1.125.562.562 0 0 0-.001-1.125z" fill="#2F2F2F"/><path d="M29.665 2.651a.562.562 0 1 0 .001 1.125.562.562 0 0 0-.001-1.125z" fill="url(#g)"/><path d="M29.665 2.651a.562.562 0 1 0 .001 1.125.562.562 0 0 0-.001-1.125z" fill="#1967FE"/><defs><linearGradient id="a" x1="11.822" y1="16.973" x2="2.714" y2="19.873" gradientUnits="userSpaceOnUse"><stop stop-color="#54BEFF"/><stop offset="1" stop-color="#704CFF"/></linearGradient><linearGradient id="b" x1="28.366" y1="16.973" x2="19.258" y2="19.873" gradientUnits="userSpaceOnUse"><stop stop-color="#54BEFF"/><stop offset="1" stop-color="#704CFF"/></linearGradient><linearGradient id="c" x1="19.48" y1="16.973" x2="11.704" y2="19.026" gradientUnits="userSpaceOnUse"><stop stop-color="#54BEFF"/><stop offset="1" stop-color="#704CFF"/></linearGradient><linearGradient id="d" x1="33" y1="13.239" x2="-6.439" y2="29.393" gradientUnits="userSpaceOnUse"><stop stop-color="#54BEFF"/><stop offset="1" stop-color="#704CFF"/></linearGradient><linearGradient id="e" x1="27.348" y1="3.128" x2="25.969" y2="3.638" gradientUnits="userSpaceOnUse"><stop stop-color="#54BEFF"/><stop offset="1" stop-color="#704CFF"/></linearGradient><linearGradient id="f" x1="24.469" y1="3.128" x2="23.09" y2="3.638" gradientUnits="userSpaceOnUse"><stop stop-color="#54BEFF"/><stop offset="1" stop-color="#704CFF"/></linearGradient><linearGradient id="g" x1="30.227" y1="3.128" x2="28.848" y2="3.638" gradientUnits="userSpaceOnUse"><stop stop-color="#54BEFF"/><stop offset="1" stop-color="#704CFF"/></linearGradient></defs></svg>