<svg width="40" height="38" viewBox="0 0 40 38" fill="none" xmlns="http://www.w3.org/2000/svg">
<g clip-path="url(#clip0)" filter="url(#filter0_dd)">
<path d="M34.0231 1.64999H18.0811C17.826 1.64999 17.619 1.87858 17.619 2.16032C17.619 2.44233 17.826 2.67065 18.0811 2.67065H34.0234C34.2886 2.67065 34.5044 2.90907 34.5044 3.20225V18.7397C34.5044 19.0214 34.7114 19.25 34.9665 19.25C35.2218 19.25 35.4285 19.0214 35.4285 18.7397V3.20225C35.4285 2.34638 34.7983 1.64999 34.0231 1.64999Z" fill="#F14CFF"/>
<path d="M34.9682 20.3748C34.7138 20.3748 34.5078 20.6022 34.5078 20.883V21.8879H4.92076V3.1959C4.92076 2.90393 5.13584 2.66648 5.40008 2.66648H12.1804C12.4345 2.66648 12.6407 2.43909 12.6407 2.15824C12.6407 1.87764 12.4345 1.64999 12.1804 1.64999H5.40008C4.62799 1.64999 4 2.34353 4 3.1959V25.0204C4 25.6822 4.48771 26.2206 5.08717 26.2206H16.2442V28.6835H14.3432C14.089 28.6835 13.8828 28.9112 13.8828 29.1917C13.8828 29.4726 14.089 29.7 14.3432 29.7H25.0854C25.3398 29.7 25.5458 29.4726 25.5458 29.1917C25.5458 28.9112 25.3398 28.6835 25.0854 28.6835H23.1844V26.2206H34.3414C34.9409 26.2206 35.4286 25.6822 35.4286 25.0204V20.883C35.4286 20.6022 35.2226 20.3748 34.9682 20.3748ZM22.2636 28.6835H17.1649V26.2206H22.2636V28.6835ZM34.3414 25.2042H5.08717C4.99533 25.2042 4.92076 25.1218 4.92076 25.0204V22.9044H34.5078V25.0204C34.5078 25.1218 34.4332 25.2042 34.3414 25.2042Z" fill="#F14CFF"/>
<path d="M14.3718 2.74999H16.152C16.3836 2.74999 16.5714 2.50393 16.5714 2.19999C16.5714 1.89635 16.3836 1.64999 16.152 1.64999H14.3718C14.1402 1.64999 13.9524 1.89635 13.9524 2.19999C13.9524 2.50393 14.1402 2.74999 14.3718 2.74999Z" fill="#F14CFF"/>
<path d="M6.84667 6.2594C6.5925 6.2594 6.38629 6.47567 6.38629 6.7428V19.5717C6.38629 19.8386 6.5925 20.0551 6.84667 20.0551H10.4319C10.686 20.0551 10.8923 19.8386 10.8923 19.5717V6.7428C10.8923 6.47567 10.686 6.2594 10.4319 6.2594H6.84667ZM9.9715 7.2262V7.8098H7.30705V7.2262H9.9715ZM7.30705 19.0883V8.7766H9.9715V19.0883H7.30705Z" fill="#F14CFF"/>
<path d="M29.3934 11.5058H32.9786C33.233 11.5058 33.4389 11.2895 33.4389 11.0224V6.7428C33.4389 6.47567 33.233 6.2594 32.9786 6.2594H29.3934C29.1392 6.2594 28.933 6.47567 28.933 6.7428V11.0224C28.933 11.2895 29.1392 11.5058 29.3934 11.5058ZM29.8537 10.539V8.77634H32.5182V10.539H29.8537ZM32.5182 7.2262V7.8098H29.8537V7.2262H32.5182Z" fill="#F14CFF"/>
<path d="M28.933 17.8753C28.933 18.1424 29.1392 18.3587 29.3934 18.3587H32.9786C33.233 18.3587 33.4389 18.1424 33.4389 17.8753V13.5957C33.4389 13.3286 33.233 13.1123 32.9786 13.1123H29.3934C29.1392 13.1123 28.933 13.3286 28.933 13.5957V17.8753ZM29.8537 17.3919V15.6292H32.5182V17.3919H29.8537ZM32.5182 14.0791V14.6625H29.8537V14.0791H32.5182Z" fill="#F14CFF"/>
<path d="M12.9996 15.5391C12.9996 16.3164 13.6022 16.9488 14.3424 16.9488C14.6795 16.9488 14.9877 16.8176 15.2236 16.6014L18.3878 18.4421C18.3772 18.5133 18.3714 18.5866 18.3714 18.6608C18.3714 19.4383 18.9738 20.0708 19.7142 20.0708C20.4544 20.0708 21.0568 19.4383 21.0568 18.6608C21.0568 18.5866 21.0512 18.5133 21.0407 18.4421L24.2046 16.6014C24.4405 16.8174 24.7489 16.9488 25.0858 16.9488C25.8262 16.9488 26.4286 16.3164 26.4286 15.5389C26.4286 14.9314 26.0605 14.4122 25.5462 14.2146V11.2203C26.0605 11.0224 26.4286 10.5035 26.4286 9.89572C26.4286 9.11825 25.8262 8.4858 25.0858 8.4858C24.7496 8.4858 24.4422 8.61647 24.2065 8.83148L21.0404 6.98978C21.0512 6.91853 21.0568 6.84552 21.0568 6.771C21.0568 5.99353 20.4544 5.36108 19.714 5.36108C18.9738 5.36108 18.3714 5.99353 18.3714 6.771C18.3714 6.84527 18.377 6.91853 18.3878 6.98978L15.2217 8.83148C14.986 8.61647 14.6786 8.4858 14.3424 8.4858C13.602 8.4858 12.9996 9.11825 12.9996 9.89572C12.9996 10.5032 13.3677 11.0224 13.882 11.22V14.2146C13.3677 14.4122 12.9996 14.9314 12.9996 15.5391ZM19.7142 8.18091C20.0504 8.18091 20.3578 8.05024 20.5935 7.83498L23.7596 9.67693C23.749 9.74818 23.7433 9.82119 23.7433 9.89572C23.7433 9.97024 23.749 10.0435 23.7596 10.1148L20.5935 11.9565C20.3578 11.7414 20.0504 11.6108 19.7142 11.6108C19.378 11.6108 19.0706 11.7414 18.8349 11.9565L15.6689 10.1148C15.6797 10.0435 15.6852 9.97024 15.6852 9.89572C15.6852 9.82119 15.6794 9.74818 15.6689 9.67693L18.8349 7.83523C19.0706 8.05024 19.378 8.18091 19.7142 8.18091ZM23.7433 15.5391C23.7433 15.6127 23.7488 15.6849 23.7591 15.7554L20.5935 17.5969C20.4712 17.4851 20.3297 17.3959 20.1746 17.3365V14.345C20.6889 14.1474 21.057 13.6282 21.057 13.0204C21.057 12.9459 21.0512 12.8729 21.0407 12.8016L24.2068 10.9599C24.329 11.0715 24.4705 11.1606 24.6257 11.2203V14.2146C24.1113 14.4122 23.7433 14.9314 23.7433 15.5391ZM20.1362 13.0204C20.1362 13.2649 19.9468 13.4635 19.7142 13.4635C19.4816 13.4635 19.2922 13.2649 19.2922 13.0204C19.2922 12.7762 19.4816 12.5776 19.7142 12.5776C19.9468 12.5776 20.1362 12.7762 20.1362 13.0204ZM15.2217 10.9599L18.3878 12.8016C18.3772 12.8731 18.3714 12.9462 18.3714 13.0207C18.3714 13.6282 18.7395 14.1474 19.2538 14.345V17.3365C19.0987 17.3962 18.9572 17.4853 18.8349 17.5969L15.6694 15.7554C15.6797 15.6849 15.6852 15.6127 15.6852 15.5391C15.6852 14.9314 15.3171 14.4122 14.8028 14.2146V11.2203C14.9579 11.1606 15.0994 11.0715 15.2217 10.9599ZM14.3424 15.982C14.1098 15.982 13.9204 15.7834 13.9204 15.5391C13.9204 15.2947 14.1098 15.096 14.3424 15.096C14.5752 15.096 14.7644 15.2947 14.7644 15.5391C14.7644 15.7834 14.5752 15.982 14.3424 15.982ZM19.7142 19.104C19.4816 19.104 19.2922 18.9051 19.2922 18.6608C19.2922 18.4166 19.4816 18.2177 19.7142 18.2177C19.9468 18.2177 20.1362 18.4166 20.1362 18.6608C20.1362 18.9051 19.9468 19.104 19.7142 19.104ZM25.086 15.982C24.8534 15.982 24.664 15.7834 24.664 15.5391C24.664 15.2947 24.8534 15.096 25.086 15.096C25.3186 15.096 25.508 15.2947 25.508 15.5391C25.508 15.7834 25.3186 15.982 25.086 15.982ZM25.086 9.4526C25.3186 9.4526 25.508 9.6515 25.508 9.89572C25.508 10.1399 25.3186 10.3388 25.086 10.3388C24.8534 10.3388 24.664 10.1399 24.664 9.89572C24.664 9.6515 24.8534 9.4526 25.086 9.4526ZM19.7142 6.32788C19.9468 6.32788 20.1362 6.52678 20.1362 6.771C20.1362 7.01521 19.9468 7.21411 19.7142 7.21411C19.4816 7.21411 19.2922 7.01521 19.2922 6.771C19.2922 6.52678 19.4816 6.32788 19.7142 6.32788ZM14.3424 9.4526C14.5752 9.4526 14.7644 9.6515 14.7644 9.89572C14.7644 10.1399 14.5752 10.3388 14.3424 10.3388C14.1098 10.3388 13.9204 10.1399 13.9204 9.89572C13.9204 9.6515 14.1098 9.4526 14.3424 9.4526Z" fill="#F14CFF"/>
</g>
<defs>
<filter id="filter0_dd" x="0" y="0" width="39.4286" height="41" filterUnits="userSpaceOnUse" color-interpolation-filters="sRGB">
<feFlood flood-opacity="0" result="BackgroundImageFix"/>
<feColorMatrix in="SourceAlpha" type="matrix" values="0 0 0 0 0 0 0 0 0 0 0 0 0 0 0 0 0 0 127 0"/>
<feOffset dy="4"/>
<feGaussianBlur stdDeviation="2"/>
<feColorMatrix type="matrix" values="0 0 0 0 0 0 0 0 0 0 0 0 0 0 0 0 0 0 0.25 0"/>
<feBlend mode="normal" in2="BackgroundImageFix" result="effect1_dropShadow"/>
<feColorMatrix in="SourceAlpha" type="matrix" values="0 0 0 0 0 0 0 0 0 0 0 0 0 0 0 0 0 0 127 0"/>
<feOffset dy="4"/>
<feGaussianBlur stdDeviation="2"/>
<feColorMatrix type="matrix" values="0 0 0 0 0 0 0 0 0 0 0 0 0 0 0 0 0 0 0.25 0"/>
<feBlend mode="normal" in2="effect1_dropShadow" result="effect2_dropShadow"/>
<feBlend mode="normal" in="SourceGraphic" in2="effect2_dropShadow" result="shape"/>
</filter>
<clipPath id="clip0">
<rect width="31.4286" height="33" fill="white" transform="translate(4)"/>
</clipPath>
</defs>
</svg>
